# MagicaVoxel @ Ephtracy

# group
o 

# material
mtllib zamok.mtl
usemtl palette

# normals
vn -1 0 0
vn 1 0 0
vn 0 0 1
vn 0 0 -1
vn 0 -1 0
vn 0 1 0

# texcoords
vt 0.931641 0.5
vt 0.978516 0.5
vt 0.994141 0.5

# verts
v 8.9 8.7 -12
v 8.9 8.7 -12.2
v 8.9 10.6 -12
v 8.9 10.6 -12.2
v 10 10.1 -12
v 10 10.1 -12.1
v 10 10.4 -12
v 10 10.4 -12.1
v 9 10.1 -12
v 9 10.1 -12.1
v 9 10.4 -12
v 9 10.4 -12.1
v 10.1 8.7 -12
v 10.1 8.7 -12.2
v 10.1 10.6 -12
v 10.1 10.6 -12.2
v 8.9 8.7 -12
v 8.9 10.6 -12
v 9 10.1 -12
v 9 10.4 -12
v 9.1 9.1 -12
v 9.1 9.3 -12
v 9.1 9.4 -12
v 9.1 9.6 -12
v 9.1 9.7 -12
v 9.1 9.9 -12
v 9.3 9.1 -12
v 9.3 9.3 -12
v 9.3 9.4 -12
v 9.3 9.6 -12
v 9.3 9.7 -12
v 9.3 9.9 -12
v 9.4 8.8 -12
v 9.4 9 -12
v 9.4 9.1 -12
v 9.4 9.3 -12
v 9.4 9.4 -12
v 9.4 9.6 -12
v 9.4 9.7 -12
v 9.4 9.9 -12
v 9.6 8.8 -12
v 9.6 9 -12
v 9.6 9.1 -12
v 9.6 9.3 -12
v 9.6 9.4 -12
v 9.6 9.6 -12
v 9.6 9.7 -12
v 9.6 9.9 -12
v 9.7 9.1 -12
v 9.7 9.3 -12
v 9.7 9.4 -12
v 9.7 9.6 -12
v 9.7 9.7 -12
v 9.7 9.9 -12
v 9.9 9.1 -12
v 9.9 9.3 -12
v 9.9 9.4 -12
v 9.9 9.6 -12
v 9.9 9.7 -12
v 9.9 9.9 -12
v 10 10.1 -12
v 10 10.4 -12
v 10.1 8.7 -12
v 10.1 10.6 -12
v 9 10.1 -12.1
v 9 10.4 -12.1
v 10 10.1 -12.1
v 10 10.4 -12.1
v 8.9 8.7 -12.2
v 8.9 10.6 -12.2
v 9 10 -12.2
v 9 10.4 -12.2
v 10 10 -12.2
v 10 10.4 -12.2
v 10.1 8.7 -12.2
v 10.1 10.6 -12.2
v 8.9 8.7 -12
v 10.1 8.7 -12
v 8.9 8.7 -12.2
v 10.1 8.7 -12.2
v 9 10.4 -12
v 10 10.4 -12
v 9 10.4 -12.1
v 10 10.4 -12.1
v 9 10.1 -12
v 10 10.1 -12
v 9 10.1 -12.1
v 10 10.1 -12.1
v 8.9 10.6 -12
v 10.1 10.6 -12
v 8.9 10.6 -12.2
v 10.1 10.6 -12.2

# faces
f 3/2/1 2/2/1 1/2/1
f 4/2/1 2/2/1 3/2/1
f 7/2/1 6/2/1 5/2/1
f 8/2/1 6/2/1 7/2/1
f 9/2/2 10/2/2 11/2/2
f 11/2/2 10/2/2 12/2/2
f 13/2/2 14/2/2 15/2/2
f 15/2/2 14/2/2 16/2/2
f 19/2/3 18/2/3 17/2/3
f 20/2/3 18/2/3 19/2/3
f 21/2/3 19/2/3 17/2/3
f 22/2/3 19/2/3 21/2/3
f 23/2/3 19/2/3 22/2/3
f 24/2/3 19/2/3 23/2/3
f 25/2/3 19/2/3 24/2/3
f 26/2/3 19/2/3 25/2/3
f 27/2/3 21/2/3 17/2/3
f 27/3/3 22/3/3 21/3/3
f 28/2/3 23/2/3 22/2/3
f 28/3/3 22/3/3 27/3/3
f 29/3/3 24/3/3 23/3/3
f 29/2/3 23/2/3 28/2/3
f 30/2/3 25/2/3 24/2/3
f 30/3/3 24/3/3 29/3/3
f 31/3/3 26/3/3 25/3/3
f 31/2/3 25/2/3 30/2/3
f 32/2/3 19/2/3 26/2/3
f 32/3/3 26/3/3 31/3/3
f 33/2/3 31/2/3 30/2/3
f 33/2/3 30/2/3 29/2/3
f 33/2/3 32/2/3 31/2/3
f 33/2/3 29/2/3 28/2/3
f 33/2/3 28/2/3 27/2/3
f 33/2/3 27/2/3 17/2/3
f 34/2/3 32/2/3 33/2/3
f 35/2/3 32/2/3 34/2/3
f 36/2/3 32/2/3 35/2/3
f 37/2/3 32/2/3 36/2/3
f 38/2/3 32/2/3 37/2/3
f 39/2/3 32/2/3 38/2/3
f 40/2/3 19/2/3 32/2/3
f 40/2/3 32/2/3 39/2/3
f 41/2/3 33/2/3 17/2/3
f 41/3/3 34/3/3 33/3/3
f 42/2/3 35/2/3 34/2/3
f 42/3/3 34/3/3 41/3/3
f 43/3/3 36/3/3 35/3/3
f 43/2/3 35/2/3 42/2/3
f 44/2/3 37/2/3 36/2/3
f 44/3/3 36/3/3 43/3/3
f 45/3/3 38/3/3 37/3/3
f 45/2/3 37/2/3 44/2/3
f 46/2/3 39/2/3 38/2/3
f 46/3/3 38/3/3 45/3/3
f 47/3/3 40/3/3 39/3/3
f 47/2/3 39/2/3 46/2/3
f 48/2/3 19/2/3 40/2/3
f 48/3/3 40/3/3 47/3/3
f 49/2/3 45/2/3 44/2/3
f 49/2/3 47/2/3 46/2/3
f 49/2/3 48/2/3 47/2/3
f 49/2/3 44/2/3 43/2/3
f 49/2/3 43/2/3 42/2/3
f 49/2/3 42/2/3 41/2/3
f 49/2/3 46/2/3 45/2/3
f 50/2/3 48/2/3 49/2/3
f 51/2/3 48/2/3 50/2/3
f 52/2/3 48/2/3 51/2/3
f 53/2/3 48/2/3 52/2/3
f 54/2/3 19/2/3 48/2/3
f 54/2/3 48/2/3 53/2/3
f 55/2/3 49/2/3 41/2/3
f 55/3/3 50/3/3 49/3/3
f 56/2/3 51/2/3 50/2/3
f 56/3/3 50/3/3 55/3/3
f 57/3/3 52/3/3 51/3/3
f 57/2/3 51/2/3 56/2/3
f 58/2/3 53/2/3 52/2/3
f 58/3/3 52/3/3 57/3/3
f 59/3/3 54/3/3 53/3/3
f 59/2/3 53/2/3 58/2/3
f 60/2/3 19/2/3 54/2/3
f 60/3/3 54/3/3 59/3/3
f 61/2/3 57/2/3 56/2/3
f 61/2/3 19/2/3 60/2/3
f 61/2/3 60/2/3 59/2/3
f 61/2/3 56/2/3 55/2/3
f 61/2/3 59/2/3 58/2/3
f 61/2/3 58/2/3 57/2/3
f 62/2/3 18/2/3 20/2/3
f 63/2/3 61/2/3 55/2/3
f 63/2/3 62/2/3 61/2/3
f 63/2/3 55/2/3 41/2/3
f 63/2/3 41/2/3 17/2/3
f 64/2/3 18/2/3 62/2/3
f 64/2/3 62/2/3 63/2/3
f 67/1/3 66/1/3 65/1/3
f 68/1/3 66/1/3 67/1/3
f 69/2/4 70/2/4 71/2/4
f 71/2/4 70/2/4 72/2/4
f 69/2/4 71/2/4 73/2/4
f 71/1/4 72/1/4 73/1/4
f 72/2/4 70/2/4 74/2/4
f 73/1/4 72/1/4 74/1/4
f 69/2/4 73/2/4 75/2/4
f 73/2/4 74/2/4 75/2/4
f 74/2/4 70/2/4 76/2/4
f 75/2/4 74/2/4 76/2/4
f 79/2/5 78/2/5 77/2/5
f 80/2/5 78/2/5 79/2/5
f 83/2/5 82/2/5 81/2/5
f 84/2/5 82/2/5 83/2/5
f 85/2/6 86/2/6 87/2/6
f 87/2/6 86/2/6 88/2/6
f 89/2/6 90/2/6 91/2/6
f 91/2/6 90/2/6 92/2/6
